<svg xmlns="http://www.w3.org/2000/svg" viewBox="0 0 800 320" width="100%" height="100%" style="background:#0d1117;border-radius:12px;font-family:-apple-system,BlinkMacSystemFont,'Segoe UI',Helvetica,Arial,sans-serif;">
  <defs>
    <linearGradient id="areaGrad" x1="0" y1="0" x2="0" y2="1">
      <stop offset="0%" stop-color="rgba(0, 230, 118, 0.35)"/>
      <stop offset="100%" stop-color="rgba(0, 230, 118, 0.0)"/>
    </linearGradient>
    <filter id="glow" x="-20%" y="-20%" width="140%" height="140%">
      <feGaussianBlur stdDeviation="3" result="blur" />
      <feComposite in="SourceGraphic" in2="blur" operator="over" />
    </filter>
  </defs>

  <!-- Card Border -->
  <rect x="1" y="1" width="798" height="318" rx="11" fill="none" stroke="#30363d" stroke-width="1.5"/>

  <!-- Title & Current Price Badge -->
  <text x="75" y="28" fill="#8b949e" font-size="12" font-weight="600" letter-spacing="0.8">BITCOIN 30-DAY ROLLING SPOT TREND (USD)</text>
  <text x="765" y="28" text-anchor="end" fill="#00E676" font-size="14" font-weight="700">$118,594.99 (+6.61%)</text>

  <!-- Horizontal Gridlines & Price Labels -->
  <line x1="75" y1="45" x2="765" y2="45" stroke="#21262d" stroke-width="1" stroke-dasharray="4,4"/>
  <text x="65" y="49" text-anchor="end" fill="#8b949e" font-size="11">$118,595</text>

  <line x1="75" y1="160.0" x2="765" y2="160.0" stroke="#21262d" stroke-width="1" stroke-dasharray="4,4"/>
  <text x="65" y="164.0" text-anchor="end" fill="#8b949e" font-size="11">$113,795</text>

  <line x1="75" y1="275" x2="765" y2="275" stroke="#21262d" stroke-width="1" stroke-dasharray="4,4"/>
  <text x="65" y="279" text-anchor="end" fill="#8b949e" font-size="11">$108,994</text>

  <!-- Area Fill & Trend Curve -->
  <path d="M 75.0,221.2 L 98.8,210.0 L 122.6,233.4 L 146.4,235.1 L 170.2,246.4 L 194.0,223.7 L 217.8,201.4 L 241.6,213.9 L 265.3,156.0 L 289.1,119.6 L 312.9,106.5 L 336.7,109.1 L 360.5,124.7 L 384.3,122.7 L 408.1,88.3 L 431.9,96.4 L 455.7,81.4 L 479.5,116.0 L 503.3,114.7 L 527.1,125.6 L 550.9,187.4 L 574.7,203.0 L 598.4,171.7 L 622.2,275.0 L 646.0,259.5 L 669.8,259.6 L 693.6,199.1 L 717.4,147.6 L 741.2,153.9 L 765.0,45.0 L 765.0,275.0 L 75.0,275.0 Z" fill="url(#areaGrad)" />
  <path d="M 75.0,221.2 L 98.8,210.0 L 122.6,233.4 L 146.4,235.1 L 170.2,246.4 L 194.0,223.7 L 217.8,201.4 L 241.6,213.9 L 265.3,156.0 L 289.1,119.6 L 312.9,106.5 L 336.7,109.1 L 360.5,124.7 L 384.3,122.7 L 408.1,88.3 L 431.9,96.4 L 455.7,81.4 L 479.5,116.0 L 503.3,114.7 L 527.1,125.6 L 550.9,187.4 L 574.7,203.0 L 598.4,171.7 L 622.2,275.0 L 646.0,259.5 L 669.8,259.6 L 693.6,199.1 L 717.4,147.6 L 741.2,153.9 L 765.0,45.0" fill="none" stroke="#00E676" stroke-width="2.5" stroke-linecap="round" stroke-linejoin="round" filter="url(#glow)"/>

  <!-- Last Point Indicator -->
  <circle cx="765.0" cy="45.0" r="4.5" fill="#ffffff" stroke="#00E676" stroke-width="2.5"/>

  <!-- Date Axis Labels -->
  <text x="75.0" y="305" fill="#8b949e" font-size="11" text-anchor="start">2025-09-02</text>
  <text x="431.9" y="305" fill="#8b949e" font-size="11" text-anchor="middle">2025-09-17</text>
  <text x="765.0" y="305" fill="#8b949e" font-size="11" text-anchor="end">2025-10-01</text>
</svg>