<svg xmlns="http://www.w3.org/2000/svg" viewBox="0 0 800 320" width="100%" height="100%" style="background:#0d1117;border-radius:12px;font-family:-apple-system,BlinkMacSystemFont,'Segoe UI',Helvetica,Arial,sans-serif;">
  <defs>
    <linearGradient id="areaGrad" x1="0" y1="0" x2="0" y2="1">
      <stop offset="0%" stop-color="rgba(255, 82, 82, 0.35)"/>
      <stop offset="100%" stop-color="rgba(255, 82, 82, 0.0)"/>
    </linearGradient>
    <filter id="glow" x="-20%" y="-20%" width="140%" height="140%">
      <feGaussianBlur stdDeviation="3" result="blur" />
      <feComposite in="SourceGraphic" in2="blur" operator="over" />
    </filter>
  </defs>

  <!-- Card Border -->
  <rect x="1" y="1" width="798" height="318" rx="11" fill="none" stroke="#30363d" stroke-width="1.5"/>

  <!-- Title & Current Price Badge -->
  <text x="75" y="28" fill="#8b949e" font-size="12" font-weight="600" letter-spacing="0.8">BITCOIN 30-DAY ROLLING SPOT TREND (USD)</text>
  <text x="765" y="28" text-anchor="end" fill="#FF5252" font-size="14" font-weight="700">$92,215.14 (-15.12%)</text>

  <!-- Horizontal Gridlines & Price Labels -->
  <line x1="75" y1="45" x2="765" y2="45" stroke="#21262d" stroke-width="1" stroke-dasharray="4,4"/>
  <text x="65" y="49" text-anchor="end" fill="#8b949e" font-size="11">$114,559</text>

  <line x1="75" y1="160.0" x2="765" y2="160.0" stroke="#21262d" stroke-width="1" stroke-dasharray="4,4"/>
  <text x="65" y="164.0" text-anchor="end" fill="#8b949e" font-size="11">$103,387</text>

  <line x1="75" y1="275" x2="765" y2="275" stroke="#21262d" stroke-width="1" stroke-dasharray="4,4"/>
  <text x="65" y="279" text-anchor="end" fill="#8b949e" font-size="11">$92,215</text>

  <!-- Area Fill & Trend Curve -->
  <path d="M 75.0,105.9 L 98.8,86.5 L 122.6,109.5 L 146.4,117.0 L 170.2,91.1 L 194.0,81.6 L 217.8,75.0 L 241.6,45.0 L 265.3,49.7 L 289.1,62.1 L 312.9,91.7 L 336.7,109.2 L 360.5,96.0 L 384.3,90.9 L 408.1,86.4 L 431.9,127.1 L 455.7,179.5 L 479.5,154.9 L 503.3,181.0 L 527.1,160.5 L 550.9,171.1 L 574.7,146.3 L 598.4,133.0 L 622.2,163.4 L 646.0,177.8 L 669.8,198.0 L 693.6,250.5 L 717.4,240.2 L 741.2,253.9 L 765.0,275.0 L 765.0,275.0 L 75.0,275.0 Z" fill="url(#areaGrad)" />
  <path d="M 75.0,105.9 L 98.8,86.5 L 122.6,109.5 L 146.4,117.0 L 170.2,91.1 L 194.0,81.6 L 217.8,75.0 L 241.6,45.0 L 265.3,49.7 L 289.1,62.1 L 312.9,91.7 L 336.7,109.2 L 360.5,96.0 L 384.3,90.9 L 408.1,86.4 L 431.9,127.1 L 455.7,179.5 L 479.5,154.9 L 503.3,181.0 L 527.1,160.5 L 550.9,171.1 L 574.7,146.3 L 598.4,133.0 L 622.2,163.4 L 646.0,177.8 L 669.8,198.0 L 693.6,250.5 L 717.4,240.2 L 741.2,253.9 L 765.0,275.0" fill="none" stroke="#FF5252" stroke-width="2.5" stroke-linecap="round" stroke-linejoin="round" filter="url(#glow)"/>

  <!-- Last Point Indicator -->
  <circle cx="765.0" cy="275.0" r="4.5" fill="#ffffff" stroke="#FF5252" stroke-width="2.5"/>

  <!-- Date Axis Labels -->
  <text x="75.0" y="305" fill="#8b949e" font-size="11" text-anchor="start">2025-10-19</text>
  <text x="431.9" y="305" fill="#8b949e" font-size="11" text-anchor="middle">2025-11-03</text>
  <text x="765.0" y="305" fill="#8b949e" font-size="11" text-anchor="end">2025-11-17</text>
</svg>