<svg xmlns="http://www.w3.org/2000/svg" viewBox="0 0 800 320" width="100%" height="100%" style="background:#0d1117;border-radius:12px;font-family:-apple-system,BlinkMacSystemFont,'Segoe UI',Helvetica,Arial,sans-serif;">
  <defs>
    <linearGradient id="areaGrad" x1="0" y1="0" x2="0" y2="1">
      <stop offset="0%" stop-color="rgba(255, 82, 82, 0.35)"/>
      <stop offset="100%" stop-color="rgba(255, 82, 82, 0.0)"/>
    </linearGradient>
    <filter id="glow" x="-20%" y="-20%" width="140%" height="140%">
      <feGaussianBlur stdDeviation="3" result="blur" />
      <feComposite in="SourceGraphic" in2="blur" operator="over" />
    </filter>
  </defs>

  <!-- Card Border -->
  <rect x="1" y="1" width="798" height="318" rx="11" fill="none" stroke="#30363d" stroke-width="1.5"/>

  <!-- Title & Current Price Badge -->
  <text x="75" y="28" fill="#8b949e" font-size="12" font-weight="600" letter-spacing="0.8">BITCOIN 30-DAY ROLLING SPOT TREND (USD)</text>
  <text x="765" y="28" text-anchor="end" fill="#FF5252" font-size="14" font-weight="700">$63,780.00 (-1.05%)</text>

  <!-- Horizontal Gridlines & Price Labels -->
  <line x1="75" y1="45" x2="765" y2="45" stroke="#21262d" stroke-width="1" stroke-dasharray="4,4"/>
  <text x="65" y="49" text-anchor="end" fill="#8b949e" font-size="11">$66,329</text>

  <line x1="75" y1="160.0" x2="765" y2="160.0" stroke="#21262d" stroke-width="1" stroke-dasharray="4,4"/>
  <text x="65" y="164.0" text-anchor="end" fill="#8b949e" font-size="11">$62,477</text>

  <line x1="75" y1="275" x2="765" y2="275" stroke="#21262d" stroke-width="1" stroke-dasharray="4,4"/>
  <text x="65" y="279" text-anchor="end" fill="#8b949e" font-size="11">$58,625</text>

  <!-- Area Fill & Trend Curve -->
  <path d="M 75.0,100.8 L 98.8,62.4 L 122.6,45.0 L 146.4,64.5 L 170.2,99.3 L 194.0,145.6 L 217.8,128.1 L 241.6,105.6 L 265.3,135.1 L 289.1,113.9 L 312.9,152.3 L 336.7,201.8 L 360.5,240.1 L 384.3,231.0 L 408.1,233.1 L 431.9,246.6 L 455.7,226.2 L 479.5,275.0 L 503.3,233.2 L 527.1,187.4 L 550.9,156.8 L 574.7,140.1 L 598.4,125.0 L 622.2,113.3 L 646.0,133.5 L 669.8,165.6 L 693.6,137.5 L 717.4,109.7 L 741.2,119.9 L 765.0,121.1 L 765.0,275.0 L 75.0,275.0 Z" fill="url(#areaGrad)" />
  <path d="M 75.0,100.8 L 98.8,62.4 L 122.6,45.0 L 146.4,64.5 L 170.2,99.3 L 194.0,145.6 L 217.8,128.1 L 241.6,105.6 L 265.3,135.1 L 289.1,113.9 L 312.9,152.3 L 336.7,201.8 L 360.5,240.1 L 384.3,231.0 L 408.1,233.1 L 431.9,246.6 L 455.7,226.2 L 479.5,275.0 L 503.3,233.2 L 527.1,187.4 L 550.9,156.8 L 574.7,140.1 L 598.4,125.0 L 622.2,113.3 L 646.0,133.5 L 669.8,165.6 L 693.6,137.5 L 717.4,109.7 L 741.2,119.9 L 765.0,121.1" fill="none" stroke="#FF5252" stroke-width="2.5" stroke-linecap="round" stroke-linejoin="round" filter="url(#glow)"/>

  <!-- Last Point Indicator -->
  <circle cx="765.0" cy="121.1" r="4.5" fill="#ffffff" stroke="#FF5252" stroke-width="2.5"/>

  <!-- Date Axis Labels -->
  <text x="75.0" y="305" fill="#8b949e" font-size="11" text-anchor="start">2026-06-13</text>
  <text x="431.9" y="305" fill="#8b949e" font-size="11" text-anchor="middle">2026-06-28</text>
  <text x="765.0" y="305" fill="#8b949e" font-size="11" text-anchor="end">2026-07-12</text>
</svg>