<svg xmlns="http://www.w3.org/2000/svg" viewBox="0 0 800 320" width="100%" height="100%" style="background:#0d1117;border-radius:12px;font-family:-apple-system,BlinkMacSystemFont,'Segoe UI',Helvetica,Arial,sans-serif;">
  <defs>
    <linearGradient id="areaGrad" x1="0" y1="0" x2="0" y2="1">
      <stop offset="0%" stop-color="rgba(0, 230, 118, 0.35)"/>
      <stop offset="100%" stop-color="rgba(0, 230, 118, 0.0)"/>
    </linearGradient>
    <filter id="glow" x="-20%" y="-20%" width="140%" height="140%">
      <feGaussianBlur stdDeviation="3" result="blur" />
      <feComposite in="SourceGraphic" in2="blur" operator="over" />
    </filter>
  </defs>

  <!-- Card Border -->
  <rect x="1" y="1" width="798" height="318" rx="11" fill="none" stroke="#30363d" stroke-width="1.5"/>

  <!-- Title & Current Price Badge -->
  <text x="75" y="28" fill="#8b949e" font-size="12" font-weight="600" letter-spacing="0.8">BITCOIN 30-DAY ROLLING SPOT TREND (USD)</text>
  <text x="765" y="28" text-anchor="end" fill="#00E676" font-size="14" font-weight="700">$77,371.32 (+17.21%)</text>

  <!-- Horizontal Gridlines & Price Labels -->
  <line x1="75" y1="45" x2="765" y2="45" stroke="#21262d" stroke-width="1" stroke-dasharray="4,4"/>
  <text x="65" y="49" text-anchor="end" fill="#8b949e" font-size="11">$78,658</text>

  <line x1="75" y1="160.0" x2="765" y2="160.0" stroke="#21262d" stroke-width="1" stroke-dasharray="4,4"/>
  <text x="65" y="164.0" text-anchor="end" fill="#8b949e" font-size="11">$72,334</text>

  <line x1="75" y1="275" x2="765" y2="275" stroke="#21262d" stroke-width="1" stroke-dasharray="4,4"/>
  <text x="65" y="279" text-anchor="end" fill="#8b949e" font-size="11">$66,011</text>

  <!-- Area Fill & Trend Curve -->
  <path d="M 75.0,275.0 L 98.8,260.7 L 122.6,233.7 L 146.4,236.8 L 170.2,258.8 L 194.0,257.7 L 217.8,251.5 L 241.6,220.0 L 265.3,223.3 L 289.1,167.5 L 312.9,183.0 L 336.7,169.9 L 360.5,148.6 L 384.3,147.1 L 408.1,189.0 L 431.9,122.1 L 455.7,127.3 L 479.5,115.0 L 503.3,108.7 L 527.1,73.8 L 550.9,98.9 L 574.7,133.3 L 598.4,96.2 L 622.2,87.2 L 646.0,53.7 L 669.8,52.3 L 693.6,67.2 L 717.4,63.8 L 741.2,45.0 L 765.0,68.4 L 765.0,275.0 L 75.0,275.0 Z" fill="url(#areaGrad)" />
  <path d="M 75.0,275.0 L 98.8,260.7 L 122.6,233.7 L 146.4,236.8 L 170.2,258.8 L 194.0,257.7 L 217.8,251.5 L 241.6,220.0 L 265.3,223.3 L 289.1,167.5 L 312.9,183.0 L 336.7,169.9 L 360.5,148.6 L 384.3,147.1 L 408.1,189.0 L 431.9,122.1 L 455.7,127.3 L 479.5,115.0 L 503.3,108.7 L 527.1,73.8 L 550.9,98.9 L 574.7,133.3 L 598.4,96.2 L 622.2,87.2 L 646.0,53.7 L 669.8,52.3 L 693.6,67.2 L 717.4,63.8 L 741.2,45.0 L 765.0,68.4" fill="none" stroke="#00E676" stroke-width="2.5" stroke-linecap="round" stroke-linejoin="round" filter="url(#glow)"/>

  <!-- Last Point Indicator -->
  <circle cx="765.0" cy="68.4" r="4.5" fill="#ffffff" stroke="#00E676" stroke-width="2.5"/>

  <!-- Date Axis Labels -->
  <text x="75.0" y="305" fill="#8b949e" font-size="11" text-anchor="start">2026-03-29</text>
  <text x="431.9" y="305" fill="#8b949e" font-size="11" text-anchor="middle">2026-04-13</text>
  <text x="765.0" y="305" fill="#8b949e" font-size="11" text-anchor="end">2026-04-27</text>
</svg>