<svg xmlns="http://www.w3.org/2000/svg" viewBox="0 0 800 320" width="100%" height="100%" style="background:#0d1117;border-radius:12px;font-family:-apple-system,BlinkMacSystemFont,'Segoe UI',Helvetica,Arial,sans-serif;">
  <defs>
    <linearGradient id="areaGrad" x1="0" y1="0" x2="0" y2="1">
      <stop offset="0%" stop-color="rgba(0, 230, 118, 0.35)"/>
      <stop offset="100%" stop-color="rgba(0, 230, 118, 0.0)"/>
    </linearGradient>
    <filter id="glow" x="-20%" y="-20%" width="140%" height="140%">
      <feGaussianBlur stdDeviation="3" result="blur" />
      <feComposite in="SourceGraphic" in2="blur" operator="over" />
    </filter>
  </defs>

  <!-- Card Border -->
  <rect x="1" y="1" width="798" height="318" rx="11" fill="none" stroke="#30363d" stroke-width="1.5"/>

  <!-- Title & Current Price Badge -->
  <text x="75" y="28" fill="#8b949e" font-size="12" font-weight="600" letter-spacing="0.8">BITCOIN 30-DAY ROLLING SPOT TREND (USD)</text>
  <text x="765" y="28" text-anchor="end" fill="#00E676" font-size="14" font-weight="700">$116,447.59 (+3.17%)</text>

  <!-- Horizontal Gridlines & Price Labels -->
  <line x1="75" y1="45" x2="765" y2="45" stroke="#21262d" stroke-width="1" stroke-dasharray="4,4"/>
  <text x="65" y="49" text-anchor="end" fill="#8b949e" font-size="11">$116,936</text>

  <line x1="75" y1="160.0" x2="765" y2="160.0" stroke="#21262d" stroke-width="1" stroke-dasharray="4,4"/>
  <text x="65" y="164.0" text-anchor="end" fill="#8b949e" font-size="11">$112,591</text>

  <line x1="75" y1="275" x2="765" y2="275" stroke="#21262d" stroke-width="1" stroke-dasharray="4,4"/>
  <text x="65" y="279" text-anchor="end" fill="#8b949e" font-size="11">$108,246</text>

  <!-- Area Fill & Trend Curve -->
  <path d="M 75.0,152.5 L 98.8,115.5 L 122.6,162.4 L 146.4,45.0 L 170.2,84.6 L 194.0,136.1 L 217.8,225.6 L 241.6,181.9 L 265.3,195.2 L 289.1,160.6 L 312.9,271.5 L 336.7,259.9 L 360.5,275.0 L 384.3,248.8 L 408.1,195.8 L 431.9,183.4 L 455.7,209.2 L 479.5,211.1 L 503.3,223.6 L 527.1,198.5 L 550.9,173.9 L 574.7,187.7 L 598.4,123.8 L 622.2,83.5 L 646.0,69.0 L 669.8,71.9 L 693.6,89.1 L 717.4,87.0 L 741.2,48.9 L 765.0,57.9 L 765.0,275.0 L 75.0,275.0 Z" fill="url(#areaGrad)" />
  <path d="M 75.0,152.5 L 98.8,115.5 L 122.6,162.4 L 146.4,45.0 L 170.2,84.6 L 194.0,136.1 L 217.8,225.6 L 241.6,181.9 L 265.3,195.2 L 289.1,160.6 L 312.9,271.5 L 336.7,259.9 L 360.5,275.0 L 384.3,248.8 L 408.1,195.8 L 431.9,183.4 L 455.7,209.2 L 479.5,211.1 L 503.3,223.6 L 527.1,198.5 L 550.9,173.9 L 574.7,187.7 L 598.4,123.8 L 622.2,83.5 L 646.0,69.0 L 669.8,71.9 L 693.6,89.1 L 717.4,87.0 L 741.2,48.9 L 765.0,57.9" fill="none" stroke="#00E676" stroke-width="2.5" stroke-linecap="round" stroke-linejoin="round" filter="url(#glow)"/>

  <!-- Last Point Indicator -->
  <circle cx="765.0" cy="57.9" r="4.5" fill="#ffffff" stroke="#00E676" stroke-width="2.5"/>

  <!-- Date Axis Labels -->
  <text x="75.0" y="305" fill="#8b949e" font-size="11" text-anchor="start">2025-08-19</text>
  <text x="431.9" y="305" fill="#8b949e" font-size="11" text-anchor="middle">2025-09-03</text>
  <text x="765.0" y="305" fill="#8b949e" font-size="11" text-anchor="end">2025-09-17</text>
</svg>